<?xml version="1.0" encoding="UTF-8"?><svg id="a" xmlns="http://www.w3.org/2000/svg" width="2.79in" height=".62in" viewBox="0 0 201.13 44.37"><path d="m36.87,23.93H.57v15.03h36.3c4.15,0,7.51-3.36,7.51-7.51s-3.36-7.51-7.51-7.51Z" fill="#87b68d" stroke-width="0"/><path d="m7.51,17.68h36.3V2.65H7.51C3.36,2.65,0,6.02,0,10.16s3.36,7.51,7.51,7.51Z" fill="#87b68d" stroke-width="0"/><path d="m85.43,8.9c-.06,1.62-.1,3.03-.11,4.24-.01,1.21-.02,2.44-.02,3.71v.44c0,.24-.07.35-.22.35s-.22-.12-.22-.35v-.48c-.15-3.8-1.02-6.66-2.63-8.6s-3.92-2.91-6.95-2.91c-2.24,0-3.96.49-5.18,1.46s-1.83,2.32-1.83,4.06c0,.97.25,1.85.75,2.63.5.78,1.26,1.51,2.29,2.18.5.32,1.09.65,1.77.97.68.33,1.9.84,3.66,1.55,1.94.76,3.33,1.36,4.17,1.79.84.43,1.57.86,2.18,1.3,1.09.77,1.9,1.63,2.43,2.6.53.97.79,2.06.79,3.27,0,2.68-1.04,4.89-3.11,6.64-2.07,1.75-4.7,2.63-7.88,2.63-1.65,0-3.1-.07-4.37-.22-1.27-.15-3.21-.57-5.82-1.28-.18-.03-.3-.07-.35-.13-.06-.06-.09-.16-.09-.31.09-3.21.14-5.49.15-6.86.01-1.37.02-2.64.02-3.82,0-.26.07-.4.22-.4s.22.13.22.4c.09,3.74,1.03,6.71,2.82,8.91,1.79,2.21,4.19,3.31,7.19,3.31,2.06,0,3.63-.49,4.72-1.48,1.09-.98,1.63-2.37,1.63-4.17,0-1-.24-1.9-.73-2.69-.48-.8-1.26-1.52-2.32-2.16-.47-.29-1.03-.6-1.68-.91-.65-.31-1.91-.84-3.79-1.61-1.83-.73-3.16-1.32-3.99-1.74s-1.57-.86-2.18-1.3c-1.03-.76-1.79-1.62-2.29-2.58-.5-.95-.75-2.04-.75-3.24,0-2.74,1.07-4.95,3.2-6.64s4.85-2.54,8.14-2.54c1.7,0,3.34.1,4.9.29,1.56.19,3.16.49,4.81.9.21.06.33.12.37.18.05.06.08.16.11.31v.62c0,.27-.02.84-.04,1.72Z" fill="#87b68d" stroke-width="0"/><path d="m103.36,29.59c-1.32,2.21-2.7,3.88-4.12,5.03-1.43,1.15-2.83,1.72-4.21,1.72-1.5,0-2.59-.51-3.27-1.55-.68-1.03-1.01-2.72-1.01-5.07v-13.01h-3.35s-.04-.04-.04-.13.02-.15.04-.18l8.38-7.06c.12-.12.21-.17.29-.15.07.02.11.1.11.24v4.41h6.86c.13,0,.2.01.2.04,0,.09-.21.54-.62,1.35-.41.81-.72,1.3-.93,1.48h-5.6v11.56c0,1.59.24,2.8.73,3.62.49.82,1.2,1.24,2.14,1.24.76,0,1.47-.31,2.12-.93.65-.62,1.26-1.57,1.85-2.87.09-.15.21-.18.37-.11s.18.2.07.37Z" fill="#87b68d" stroke-width="0"/><path d="m126.35,27.96c-1.09,2.68-2.6,4.74-4.52,6.2s-4.07,2.18-6.42,2.18c-3.3,0-5.92-.96-7.88-2.89-1.96-1.93-2.93-4.49-2.93-7.7s1.33-6.1,3.99-8.6,5.73-3.75,9.2-3.75c2.53,0,4.5.52,5.91,1.54,1.41,1.03,2.09,2.35,2.03,3.97-.06.71-.32,1.17-.79,1.39-.47.22-1.32.33-2.56.33h-12.62c-.06.32-.1.66-.11,1.01-.02.35-.02.72-.02,1.1,0,2.82.87,5.1,2.6,6.82,1.74,1.72,4.02,2.58,6.84,2.58,1.5,0,2.88-.38,4.15-1.15,1.26-.76,2.21-1.81,2.82-3.13.09-.18.18-.24.27-.2.09.04.1.14.04.29Zm-6.22-10.06c0-1.09-.37-1.99-1.1-2.69-.74-.71-1.72-1.06-2.96-1.06-1.65,0-3.02.55-4.12,1.65s-1.82,2.63-2.14,4.57c1.32-.03,2.6-.06,3.84-.09,1.24-.03,2.6-.07,4.1-.13.38-.03.73-.09,1.06-.2.32-.1.56-.21.71-.33.21-.18.36-.4.46-.68.1-.28.15-.63.15-1.04Z" fill="#87b68d" stroke-width="0"/><path d="m141.53,29.73c-.82,1.8-2.04,3.35-3.66,4.68s-3.26,1.99-4.94,1.99c-1.59,0-2.9-.47-3.95-1.41-1.04-.94-1.57-2.1-1.57-3.49,0-1.65.87-3.15,2.6-4.5s4.6-2.81,8.6-4.37l3.18-1.24c-.03-2.79-.33-4.77-.88-5.91-.56-1.15-1.51-1.72-2.87-1.72-.56,0-1.07.12-1.54.35-.47.24-.87.59-1.19,1.06-.21.3-.4.64-.57,1.04-.18.4-.41,1.02-.71,1.87-.18.47-.3.82-.38,1.04s-.15.4-.24.55c-.24.53-.58.91-1.04,1.15-.46.24-1.11.35-1.96.35-.79,0-1.42-.15-1.88-.46-.46-.31-.68-.71-.68-1.21s.17-1.01.51-1.52c.34-.51.83-.99,1.48-1.43,1.21-.88,2.66-1.62,4.37-2.23,1.71-.6,3.24-.9,4.59-.9,2.82,0,4.93.66,6.33,1.99,1.4,1.32,2.1,3.32,2.1,6,0,.5,0,1.1-.02,1.79-.02.69-.05,1.79-.11,3.29-.03,1.29-.05,2.22-.07,2.78-.02.56-.02,1.03-.02,1.41,0,1.21.08,2.05.24,2.54.16.49.43.73.82.73.35,0,.75-.27,1.19-.82.44-.54.82-1.2,1.15-1.96.09-.18.24-.22.44-.13s.23.25.09.49c-.77,1.27-1.76,2.39-2.98,3.38s-2.38,1.48-3.46,1.48-1.87-.3-2.34-.88-.71-1.53-.71-2.82c0-.44,0-.94.02-1.5.01-.56.04-1.03.07-1.41Zm-8.78-.26c0,1.15.35,2.08,1.04,2.8.69.72,1.59,1.1,2.71,1.13,1,.03,1.96-.4,2.89-1.3.93-.9,1.66-1.98,2.18-3.24.06-2.06.11-3.66.15-4.81.05-1.15.07-1.85.07-2.12v-.18l-3.05,1.32c-2.12.88-3.65,1.83-4.59,2.82-.94,1-1.41,2.19-1.41,3.57Z" fill="#87b68d" stroke-width="0"/><path d="m168.6,31.71c-1.18,1.53-2.47,2.69-3.88,3.46s-2.91,1.17-4.5,1.17c-2.5,0-4.51-.88-6.02-2.63-1.52-1.75-2.27-4.01-2.27-6.77,0-3.97,1.18-7.22,3.55-9.75,2.37-2.53,5.33-3.79,8.89-3.79.73,0,1.46.09,2.16.26.71.18,1.4.44,2.07.79v-7.76c0-.74-.03-1.33-.09-1.79-.06-.45-.15-.82-.27-1.08-.15-.35-.38-.57-.7-.66-.33-.09-.94-.04-1.85.13-.18.03-.26-.02-.26-.15s.09-.21.26-.24c.94-.18,2.17-.56,3.68-1.15,1.51-.59,2.76-1.16,3.73-1.72.09-.06.26-.04.51.04s.37.18.37.26v30.31c0,2.35.13,3.75.38,4.19.25.44.87.66,1.87.66.18,0,.27.07.27.2s-.09.2-.27.2c-1.59,0-3.06.04-4.41.11-1.35.07-2.35.18-3,.33-.18.03-.31.01-.4-.04-.09-.06-.13-.18-.13-.35v-.13c0-.06.01-.18.04-.35.09-.76.15-1.43.2-2.01.04-.57.07-1.15.07-1.74Zm-5.52-17.69c-1.91,0-3.32.85-4.21,2.54-.9,1.69-1.35,4.32-1.35,7.88,0,3.03.53,5.43,1.59,7.19,1.06,1.77,2.51,2.65,4.37,2.65.91,0,1.79-.26,2.65-.77.85-.51,1.68-1.3,2.47-2.36v-13.15c-.68-1.2-1.5-2.17-2.47-2.89-.97-.72-1.99-1.08-3.05-1.08Z" fill="#87b68d" stroke-width="0"/><path d="m179.2,44.37c-1.15,0-2.13-.18-2.93-.55s-1.21-.79-1.21-1.26.41-1.21,1.24-2.21c.82-1,1.51-1.5,2.07-1.5.26,0,.55.04.86.13.31.09.8.28,1.48.57.74.32,1.3.54,1.7.64.4.1.77.15,1.12.15.97,0,1.77-.28,2.38-.84.62-.56,1.22-1.52,1.81-2.87l.49-1.1-7.02-15.53c-1.15-2.53-2.02-4.13-2.6-4.81-.59-.68-1.44-1-2.56-.97-.15,0-.22-.07-.22-.2s.07-.2.22-.2h.4c.21,0,.62.01,1.24.04.94.03,1.6.04,1.96.04h1.39c.32,0,.97-.01,1.94-.04,1.47-.03,2.52-.04,3.13-.04h1.28c.18,0,.27.07.27.2s-.09.2-.27.2c-.85,0-1.43.08-1.74.24s-.48.43-.51.82c-.03.29.04.7.22,1.21.18.52.48,1.24.93,2.18l4.72,10.59,3.84-8.69c.88-2,1.14-3.56.77-4.68-.37-1.12-1.3-1.68-2.8-1.68-.18,0-.26-.07-.26-.2s.09-.2.26-.2c.26,0,.58,0,.95.02.37.01.95.02,1.74.02.5.03.84.04,1.04.04h1.15c.34,0,.93-.01,1.79-.04.56-.03.93-.04,1.1-.04h.35c.15,0,.22.07.22.2s-.07.2-.22.2c-.94-.03-1.87.49-2.78,1.54-.91,1.06-1.88,2.75-2.91,5.07l-7.06,15.88c-1.12,2.59-2.4,4.51-3.86,5.76s-3.15,1.88-5.1,1.88Z" fill="#87b68d" stroke-width="0"/></svg>